<?xml version="1.0" encoding="utf-8"?>
<!-- Generator: Adobe Illustrator 18.1.1, SVG Export Plug-In . SVG Version: 6.00 Build 0)  -->
<svg version="1.1" id="Layer_1" xmlns="http://www.w3.org/2000/svg" xmlns:xlink="http://www.w3.org/1999/xlink" x="0px" y="0px"
	 viewBox="0 0 754.9 672.5" enable-background="new 0 0 754.9 672.5" xml:space="preserve">
<path fill="#00295B" d="M38.3,511.8c-10.3,0-17.7-2.3-22.3-6.8c-4.6-4.5-6.9-11.8-6.9-21.8v-26.3c0-10.3,2.5-17.9,7.6-22.6
	c5.1-4.7,12.3-7.1,21.6-7.1h48c6.6,0,11.7,0.4,15.2,1.1c3.5,0.7,5.2,1.5,5.2,2.2l-4.5,18c-2.4-0.3-7.1-0.6-14-0.9
	c-6.9-0.3-15.7-0.5-26.2-0.5H48.6c-4.5,0-7.5,0.8-9.1,2.5c-1.6,1.7-2.4,4.2-2.4,7.7v24.6c0,3.3,0.7,5.8,2.1,7.5
	c1.4,1.8,4.5,2.7,9.4,2.7h11.6c4.4,0,8.4,0,11.9-0.1c3.5,0,6.7-0.1,9.3-0.2v-10.9l-5.7,0.1L57,482.3v-19.8h52v43.3l1.4,3
	c0,0.8-2,1.5-6,2.1c-4,0.6-10.8,0.9-20.4,0.9H38.3z"/>
<path fill="#00295B" d="M165.5,511.8c-10.2,0-17.6-2.3-22.2-6.8c-4.6-4.6-7-11.8-7-21.8v-27.5c0-9.8,2.3-17,6.9-21.6
	c4.6-4.6,12-6.9,22.3-6.9h42c10.1,0,17.4,2.3,22.1,6.9c4.6,4.6,7,11.8,7,21.6v27.5c0,10-2.3,17.2-7,21.8c-4.7,4.6-12,6.8-22,6.8
	H165.5z M175.4,492.2h22.3c7.5,0,11.2-3.4,11.2-10.2v-25.2c0-6.7-3.7-10.1-11.2-10.1h-22.3c-3.8,0-6.7,0.8-8.6,2.3
	c-1.9,1.5-2.9,4.1-2.9,7.8V482c0,3.5,1,6.1,2.9,7.8C168.7,491.4,171.6,492.2,175.4,492.2"/>
<polygon fill="#00295B" points="290.8,511.8 290.8,446.7 256.6,446.7 256.6,427.1 353.3,427.1 353.3,446.7 318.7,446.7 318.7,511.8 
	"/>
<polygon fill="#D23024" points="374.9,511.8 374.9,427.3 402.6,427.3 402.6,459.5 447.3,459.5 447.3,427.3 474.9,427.3 474.9,511.8 
	447.3,511.8 447.3,479 402.6,479 402.6,511.8 "/>
<path fill="#006ABA" d="M494.8,511.8l42.1-84.5h37.4l42,84.5h-30.9l-7-15.4h-45.4l-7.9,15.4H494.8z M540.7,476.6h29.5l-13.9-30.6
	h-1.4L540.7,476.6z"/>
<polygon fill="#00295B" points="637.5,511.8 637.5,438.8 636,427.3 670.8,427.3 696.1,477.6 722,427.3 754.9,427.3 754.9,511.8 
	727.4,511.8 727.4,463.3 725.9,463.3 719.8,478.9 709.3,503.2 683.2,503.2 672.3,478.9 666.4,463.3 664.9,463.3 664.9,511.8 "/>
<polygon fill="#666666" points="11.7,651.3 11.7,657.6 20.8,657.6 20.8,659.8 11.7,659.8 11.7,667.1 9.1,667.1 9.1,649 21.9,649 
	21.9,651.3 "/>
<path fill="#666666" d="M39.8,662.6h-9.6l-2,4.5h-2.7l8.2-18.1h2.6l8.2,18.1h-2.7L39.8,662.6z M38.9,660.5l-3.9-8.9l-3.9,8.9H38.9z"
	/>
<path fill="#666666" d="M49.1,665l1-2c1.3,1.2,3.6,2.1,6,2.1c3.1,0,4.5-1.2,4.5-2.8c0-4.4-10.9-1.6-10.9-8.3c0-2.8,2.2-5.2,6.9-5.2
	c2.1,0,4.3,0.6,5.8,1.6l-0.9,2.1c-1.6-1-3.4-1.5-5-1.5c-3.1,0-4.4,1.3-4.4,2.9c0,4.4,10.9,1.7,10.9,8.3c0,2.8-2.2,5.1-7,5.1
	C53.3,667.3,50.6,666.4,49.1,665"/>
<polygon fill="#666666" points="73.8,651.3 67.6,651.3 67.6,649 82.5,649 82.5,651.3 76.3,651.3 76.3,667.1 73.8,667.1 "/>
<path fill="#666666" d="M90,665.5c0,0.5-0.1,0.9-0.4,1.9l-1.2,3.6h-1.6l1-3.8c-0.6-0.2-1.1-0.8-1.1-1.6c0-1,0.8-1.8,1.7-1.8
	C89.4,663.7,90,664.5,90,665.5"/>
<path fill="#666666" d="M120.2,667.1l-3.9-5.6c-0.4,0-0.8,0.1-1.1,0.1h-4.5v5.5h-2.6V649h7c4.7,0,7.5,2.4,7.5,6.3
	c0,2.8-1.4,4.8-4,5.7l4.3,6.1H120.2z M120.1,655.3c0-2.6-1.7-4.1-5-4.1h-4.4v8.1h4.4C118.4,659.4,120.1,657.9,120.1,655.3"/>
<polygon fill="#666666" points="143.6,664.9 143.6,667.1 130.5,667.1 130.5,649 143.3,649 143.3,651.3 133.1,651.3 133.1,656.8 
	142.2,656.8 142.2,659 133.1,659 133.1,664.9 "/>
<polygon fill="#666666" points="151.4,649 154,649 154,664.8 163.8,664.8 163.8,667.1 151.4,667.1 "/>
<rect x="170.4" y="649" fill="#666666" width="2.6" height="18.1"/>
<path fill="#666666" d="M193.5,662.6h-9.6l-2,4.5h-2.7l8.2-18.1h2.6l8.2,18.1h-2.7L193.5,662.6z M192.6,660.5l-3.9-8.9l-3.9,8.9
	H192.6z"/>
<path fill="#666666" d="M220,662.2c0,3.1-2.4,4.9-6.9,4.9h-8.6V649h8.1c4.2,0,6.5,1.8,6.5,4.7c0,2-1,3.3-2.4,4
	C218.7,658.3,220,659.8,220,662.2 M207.1,651.1v5.8h5.3c2.6,0,4.1-1,4.1-2.9s-1.5-2.9-4.1-2.9H207.1z M217.4,662c0-2.1-1.5-3-4.4-3
	h-5.9v6h5.9C215.9,665,217.4,664.1,217.4,662"/>
<polygon fill="#666666" points="227.6,649 230.2,649 230.2,664.8 240,664.8 240,667.1 227.6,667.1 "/>
<polygon fill="#666666" points="259.7,664.9 259.7,667.1 246.6,667.1 246.6,649 259.3,649 259.3,651.3 249.2,651.3 249.2,656.8 
	258.2,656.8 258.2,659 249.2,659 249.2,664.9 "/>
<path fill="#666666" d="M289.6,662.6H280l-2,4.5h-2.7l8.2-18.1h2.6l8.2,18.1h-2.7L289.6,662.6z M288.7,660.5l-3.9-8.9l-3.9,8.9
	H288.7z"/>
<path fill="#666666" d="M298.8,658.1c0-5.3,4.1-9.2,9.6-9.2c2.8,0,5.2,1,6.9,2.8l-1.7,1.6c-1.4-1.5-3.1-2.1-5.1-2.1
	c-4.1,0-7.1,2.9-7.1,6.9c0,4,3,6.9,7.1,6.9c2,0,3.7-0.7,5.1-2.2l1.7,1.6c-1.7,1.9-4.1,2.8-6.9,2.8
	C302.9,667.3,298.8,663.4,298.8,658.1"/>
<path fill="#666666" d="M346.3,667.4l-2.4-2.4c-1.6,1.5-3.6,2.3-6,2.3c-3.7,0-6.3-1.9-6.3-4.7c0-2.2,1.3-3.8,4.4-5.6
	c-1.6-1.6-2.2-2.8-2.2-4.1c0-2.4,1.9-4.1,4.9-4.1c2.7,0,4.5,1.4,4.5,3.8c0,1.8-1.1,3.2-3.8,4.7l4.5,4.4c0.5-0.9,0.9-2,1.1-3.3l2,0.6
	c-0.3,1.6-0.9,3-1.6,4.1l2.4,2.4L346.3,667.4z M342.5,663.5l-5.1-5.1c-2.5,1.4-3.3,2.5-3.3,3.9c0,1.7,1.6,2.9,4.1,2.9
	C339.8,665.2,341.3,664.7,342.5,663.5 M336.1,652.9c0,0.9,0.4,1.6,1.8,3.1c2.4-1.3,3.2-2.2,3.2-3.3c0-1.2-0.9-2-2.4-2
	C337,650.7,336.1,651.6,336.1,652.9"/>
<path fill="#666666" d="M377.1,667.1l-3.9-5.6c-0.4,0-0.8,0.1-1.1,0.1h-4.5v5.5H365V649h7c4.7,0,7.5,2.4,7.5,6.3
	c0,2.8-1.4,4.8-4,5.7l4.3,6.1H377.1z M377,655.3c0-2.6-1.7-4.1-5-4.1h-4.4v8.1h4.4C375.3,659.4,377,657.9,377,655.3"/>
<polygon fill="#666666" points="400.5,664.9 400.5,667.1 387.4,667.1 387.4,649 400.1,649 400.1,651.3 390,651.3 390,656.8 
	399,656.8 399,659 390,659 390,664.9 "/>
<polygon fill="#666666" points="410.9,651.3 410.9,657.6 419.9,657.6 419.9,659.8 410.9,659.8 410.9,667.1 408.3,667.1 408.3,649 
	421,649 421,651.3 "/>
<path fill="#666666" d="M440.4,667.1l-3.9-5.6c-0.4,0-0.7,0.1-1.1,0.1h-4.5v5.5h-2.6V649h7c4.7,0,7.5,2.4,7.5,6.3
	c0,2.8-1.4,4.8-4,5.7l4.3,6.1H440.4z M440.3,655.3c0-2.6-1.7-4.1-5-4.1h-4.4v8.1h4.4C438.6,659.4,440.3,657.9,440.3,655.3"/>
<rect x="450.7" y="649" fill="#666666" width="2.6" height="18.1"/>
<path fill="#666666" d="M474.8,658h2.5v7c-1.8,1.5-4.3,2.3-6.8,2.3c-5.6,0-9.6-3.9-9.6-9.2c0-5.3,4.1-9.2,9.7-9.2
	c2.9,0,5.3,1,6.9,2.8l-1.6,1.6c-1.5-1.4-3.2-2.1-5.2-2.1c-4.2,0-7.2,2.9-7.2,6.9c0,4,3,6.9,7.2,6.9c1.5,0,2.9-0.3,4.2-1.2V658z"/>
<polygon fill="#666666" points="498.9,664.9 498.9,667.1 485.8,667.1 485.8,649 498.6,649 498.6,651.3 488.4,651.3 488.4,656.8 
	497.5,656.8 497.5,659 488.4,659 488.4,664.9 "/>
<path fill="#666666" d="M518.8,667.1l-3.9-5.6c-0.4,0-0.8,0.1-1.1,0.1h-4.5v5.5h-2.6V649h7c4.7,0,7.5,2.4,7.5,6.3
	c0,2.8-1.4,4.8-4,5.7l4.3,6.1H518.8z M518.7,655.3c0-2.6-1.7-4.1-5-4.1h-4.4v8.1h4.4C517,659.4,518.7,657.9,518.7,655.3"/>
<path fill="#666666" d="M540.6,662.6H531l-2,4.5h-2.7l8.2-18.1h2.6l8.2,18.1h-2.7L540.6,662.6z M539.7,660.5l-3.9-8.9l-3.9,8.9
	H539.7z"/>
<polygon fill="#666666" points="554.3,651.3 548.1,651.3 548.1,649 563,649 563,651.3 556.8,651.3 556.8,667.1 554.3,667.1 "/>
<rect x="569.5" y="649" fill="#666666" width="2.6" height="18.1"/>
<path fill="#666666" d="M579.6,658.1c0-5.3,4.1-9.2,9.6-9.2c5.5,0,9.6,3.9,9.6,9.2c0,5.3-4.1,9.2-9.6,9.2
	C583.7,667.3,579.6,663.4,579.6,658.1 M596.2,658.1c0-4-3-6.9-7-6.9c-4.1,0-7,2.9-7,6.9c0,4,3,6.9,7,6.9
	C593.2,665,596.2,662.1,596.2,658.1"/>
<polygon fill="#666666" points="621.9,649 621.9,667.1 619.8,667.1 609,653.6 609,667.1 606.4,667.1 606.4,649 608.5,649 
	619.3,662.5 619.3,649 "/>
<path fill="#666666" d="M653.6,667.1l-3.9-5.6c-0.4,0-0.8,0.1-1.1,0.1h-4.5v5.5h-2.6V649h7c4.7,0,7.5,2.4,7.5,6.3
	c0,2.8-1.4,4.8-4,5.7l4.3,6.1H653.6z M653.5,655.3c0-2.6-1.7-4.1-5-4.1h-4.4v8.1h4.4C651.8,659.4,653.5,657.9,653.5,655.3"/>
<polygon fill="#666666" points="677,664.9 677,667.1 663.9,667.1 663.9,649 676.6,649 676.6,651.3 666.5,651.3 666.5,656.8 
	675.5,656.8 675.5,659 666.5,659 666.5,664.9 "/>
<path fill="#666666" d="M699.4,655.3c0,3.9-2.8,6.3-7.5,6.3h-4.5v5.5h-2.6V649h7C696.5,649,699.4,651.4,699.4,655.3 M696.8,655.3
	c0-2.6-1.7-4.1-5-4.1h-4.4v8.1h4.4C695.1,659.4,696.8,657.9,696.8,655.3"/>
<path fill="#666666" d="M717.4,662.6h-9.6l-2,4.5h-2.7l8.2-18.1h2.6l8.2,18.1h-2.7L717.4,662.6z M716.5,660.5l-3.9-8.9l-3.9,8.9
	H716.5z"/>
<rect x="728.4" y="649" fill="#666666" width="2.6" height="18.1"/>
<path fill="#666666" d="M752.1,667.1l-3.9-5.6c-0.4,0-0.7,0.1-1.1,0.1h-4.5v5.5H740V649h7c4.7,0,7.5,2.4,7.5,6.3
	c0,2.8-1.4,4.8-4,5.7l4.3,6.1H752.1z M752,655.3c0-2.6-1.7-4.1-5-4.1h-4.4v8.1h4.4C750.3,659.4,752,657.9,752,655.3"/>
<g>
	<defs>
		<path id="SVGID_1_" d="M413.6,144.8h-53.6l42.6,33.4c4.5,7.1-24.4,8.8-27.6,9.1c-13.4,1.2-26.9,1.4-40.4,0.6
			c-18.9-1.1-37.3-6-56.1-7.1c-55.4-3.2-102.5,17.7-139.4,60.1c-1.4,1.6-4.3,4.8-4.1,7c22.5-16.8,49.7-27.5,77.9-29.3
			c24-1.6,47,1.9,69.8,5.3c33.8,5.1,67.2,10.2,103-1c16.4-5.2,30.9-14.3,46-22.3l48,34.8l-16-55.8l43.8-34.7h-55l-19.5-55.7
			L413.6,144.8z"/>
	</defs>
	<clipPath id="SVGID_2_">
		<use xlink:href="#SVGID_1_"  overflow="visible"/>
	</clipPath>
	
		<linearGradient id="SVGID_3_" gradientUnits="userSpaceOnUse" x1="-158" y1="875.5473" x2="-157" y2="875.5473" gradientTransform="matrix(270.3967 -62.9048 -62.9048 -270.3967 97984.7969 227006.125)">
		<stop  offset="0" style="stop-color:#0081C1"/>
		<stop  offset="0.2221" style="stop-color:#0081C1"/>
		<stop  offset="1" style="stop-color:#00295B"/>
	</linearGradient>
	<polygon clip-path="url(#SVGID_2_)" fill="url(#SVGID_3_)" points="99.8,97.3 488.5,6.9 542.6,239.7 154,330.1 	"/>
</g>
<path fill="#00295B" d="M279.2,168.2c10.1,0.6,19.9,2.2,29.3,3.7c9.2,1.5,13.9,2.9,22.7,3.4c1.2,0.1,2.3,0.1,3.5,0.2v-54.9
	c0-14.3,3.3-24.9,9.8-31.9c6.6-6.9,23.2-10.4,41.9-10.4H442c43.7,0,156.4,0.7,185.2,2.1l-0.6-52.1C626.5,12.6,613.8,0,598.1,0H343.6
	c-38.6,0-68.4,9.8-89.4,29.5c-21.1,19.7-31.6,51-31.6,93.9v50C240.6,168.8,259.5,167.1,279.2,168.2"/>
<path fill="#D23024" d="M415.7,224c-22.6,24.1-53.6,46.8-86.3,53c-61,11.6-120.1-18.9-179.7,2.8l-29.3,12.4
	c20-31.5,58.6-50.4,95.4-52.9c44.2-3,85.8,12,129.5,6.9C370,243.4,393.4,234.5,415.7,224"/>
<path fill="#00295B" d="M541,134.4l-62.8,49.8l7.5,26.2l69.7-0.3v91.7h-10.9v-14.3h-5.3v-4.6h-13.1v4.6h-5.3v14.3h-7.7v-29.6h-35.7
	v29.6h-8.1v-20.5h-3.2v-18.1h-3.3v-8.8h-3.2v-4.3h-3.3v-3.3h-4v-5.2h-2v5.2h-3.8v3.3h-3.3v4.3H440v8.8h-3.3v18.1h-3.2v20.5H425
	v-28.7l-23-19.5v10.1h-11.4v38.1h-9.5v-10.5v-8.5v-9.3h-17.9v9.3h-11.9v19h-17.4v-12.9c-26.9,5.5-73.3,1.6-96.5-0.9
	c-0.6-0.1-1.2-0.2-1.8-0.2c-4.1-0.5-8.2-1-12.2-1.4c0,49.3,40,95.4,89.3,95.4h220.6c39.7,0,68-1.3,84.7-3.9l19.1-3.2v-34.2V134.4
	H541z"/>
<path fill="#00295B" d="M228.8,613.4l42.1-84.5h37.4l42,84.5h-30.9l-7-15.4h-45.4l-7.9,15.4H228.8z M274.8,578.2h29.5l-13.9-30.6
	h-1.4L274.8,578.2z"/>
<rect x="370.1" y="528.9" fill="#00295B" width="27.6" height="84.5"/>
<path fill="#00295B" d="M521.1,614.9c-3.8,0-8.1-0.6-12.8-1.8c-4.7-1.2-9.3-4.1-13.9-8.8l-6-6c-2.9-2.9-5.6-5.2-8.3-7
	c-2.6-1.8-5.6-3.2-9-4.1c-3.4-0.9-7.6-1.4-12.6-1.4h-1.2v27.7h-28v-73l-1.4-11.6h66.5c6.1,0,11.1,0.7,14.9,2.2
	c3.8,1.5,6.7,3.4,8.8,5.9c2.1,2.4,3.5,5.2,4.2,8.3c0.8,3.1,1.1,6.2,1.1,9.3v2.7c0,5.7-1.5,10.9-4.4,15.4c-2.9,4.6-7.5,7.8-13.9,9.7
	c2.4,1.4,4.7,2.9,6.8,4.4c2.2,1.5,4.6,3,7.4,4.7c3.2,1.8,6.1,3.1,8.8,4c2.7,0.8,5,1.3,6.8,1.5c1.8,0.2,2.9,0.3,3.2,0.3l-4.3,16.2
	c-1.1,0.3-2.9,0.6-5.2,0.9C526.3,614.7,523.8,614.9,521.1,614.9 M474,566.6c2.4,0,4.7,0,7-0.1c2.2-0.1,4.3-0.2,6.1-0.4
	c3.3-0.4,5.5-1.4,6.7-3.1c1.2-1.7,1.8-3.7,1.8-6.1v-1.6c0-2.1-0.6-3.7-1.8-4.9c-1.2-1.2-3.4-1.7-6.5-1.7h-29.9V566
	c2.4,0.1,5,0.2,7.9,0.4C468.1,566.5,471,566.6,474,566.6"/>
</svg>
