<?xml version="1.0" encoding="utf-8"?>
<!-- Generator: Adobe Illustrator 18.1.1, SVG Export Plug-In . SVG Version: 6.00 Build 0)  -->
<svg version="1.1" id="Layer_1" xmlns="http://www.w3.org/2000/svg" xmlns:xlink="http://www.w3.org/1999/xlink" x="0px" y="0px"
	 viewBox="0 0 745.8 239.8" enable-background="new 0 0 745.8 239.8" xml:space="preserve">
<path fill="#00295B" d="M29.2,84.5c-10.3,0-17.7-2.3-22.3-6.8C2.3,73.3,0,66,0,55.9V29.6C0,19.3,2.5,11.7,7.6,7
	c5.1-4.7,12.3-7.1,21.6-7.1h48c6.6,0,11.7,0.4,15.2,1.1c3.5,0.7,5.2,1.5,5.2,2.2l-4.5,18c-2.4-0.3-7.1-0.6-14-0.9
	c-6.9-0.3-15.7-0.5-26.2-0.5H39.5c-4.5,0-7.5,0.8-9.1,2.5c-1.6,1.7-2.4,4.2-2.4,7.7v24.6c0,3.3,0.7,5.8,2.1,7.5
	c1.4,1.8,4.5,2.7,9.4,2.7h11.6c4.4,0,8.4,0,11.9-0.1c3.5,0,6.7-0.1,9.3-0.2V53.5l-5.7,0.1L47.9,55V35.2h52v43.3l1.4,3
	c0,0.8-2,1.5-6,2.1c-4,0.6-10.8,0.9-20.4,0.9H29.2z"/>
<path fill="#00295B" d="M156.4,84.5c-10.2,0-17.6-2.3-22.2-6.8c-4.6-4.6-7-11.8-7-21.8V28.5c0-9.8,2.3-17,6.9-21.6
	c4.6-4.6,12-6.9,22.3-6.9h42c10.1,0,17.4,2.3,22.1,6.9c4.6,4.6,7,11.8,7,21.6v27.5c0,10-2.3,17.2-7,21.8c-4.7,4.6-12,6.8-22,6.8
	H156.4z M166.3,65h22.3c7.5,0,11.2-3.4,11.2-10.2V29.6c0-6.7-3.7-10.1-11.2-10.1h-22.3c-3.8,0-6.7,0.8-8.6,2.3
	c-1.9,1.5-2.9,4.1-2.9,7.8v25.2c0,3.5,1,6.1,2.9,7.8C159.6,64.1,162.5,65,166.3,65"/>
<polygon fill="#00295B" points="281.7,84.5 281.7,19.4 247.5,19.4 247.5,-0.1 344.2,-0.1 344.2,19.4 309.6,19.4 309.6,84.5 "/>
<polygon fill="#D23024" points="365.8,84.5 365.8,0 393.5,0 393.5,32.2 438.2,32.2 438.2,0 465.8,0 465.8,84.5 438.2,84.5 
	438.2,51.7 393.5,51.7 393.5,84.5 "/>
<path fill="#006ABA" d="M485.6,84.5L527.8,0h37.4l42,84.5h-30.9l-7-15.4h-45.4l-7.9,15.4H485.6z M531.6,49.3h29.5l-13.9-30.6h-1.4
	L531.6,49.3z"/>
<polygon fill="#00295B" points="628.4,84.5 628.4,11.5 626.9,0 661.7,0 687,50.3 712.9,0 745.8,0 745.8,84.5 718.3,84.5 718.3,36.1 
	716.8,36.1 710.7,51.6 700.2,75.9 674.1,75.9 663.1,51.6 657.3,36.1 655.8,36.1 655.8,84.5 "/>
<polygon fill="#666666" points="2.6,224 2.6,230.3 11.6,230.3 11.6,232.5 2.6,232.5 2.6,239.8 0,239.8 0,221.8 12.8,221.8 12.8,224 
	"/>
<path fill="#666666" d="M30.7,235.3h-9.6l-2,4.5h-2.7l8.2-18.1h2.6l8.2,18.1h-2.7L30.7,235.3z M29.8,233.2l-3.9-8.9l-3.9,8.9H29.8z"
	/>
<path fill="#666666" d="M40,237.8l1-2c1.3,1.2,3.6,2.1,6,2.1c3.1,0,4.5-1.2,4.5-2.8c0-4.4-10.9-1.6-10.9-8.3c0-2.8,2.2-5.2,6.9-5.2
	c2.1,0,4.3,0.6,5.8,1.6l-0.9,2.1c-1.6-1-3.4-1.5-5-1.5c-3.1,0-4.4,1.3-4.4,2.9c0,4.4,10.9,1.7,10.9,8.3c0,2.8-2.2,5.1-7,5.1
	C44.2,240,41.5,239.1,40,237.8"/>
<polygon fill="#666666" points="64.7,224 58.5,224 58.5,221.8 73.4,221.8 73.4,224 67.2,224 67.2,239.8 64.7,239.8 "/>
<path fill="#666666" d="M80.9,238.2c0,0.5-0.1,0.9-0.4,1.9l-1.2,3.6h-1.6l1-3.8c-0.6-0.2-1.1-0.8-1.1-1.6c0-1,0.8-1.8,1.7-1.8
	C80.2,236.4,80.9,237.2,80.9,238.2"/>
<path fill="#666666" d="M111.1,239.8l-3.9-5.6c-0.4,0-0.8,0.1-1.1,0.1h-4.5v5.5H99v-18.1h7c4.7,0,7.5,2.4,7.5,6.3
	c0,2.8-1.4,4.8-4,5.7l4.3,6.1H111.1z M111,228.1c0-2.6-1.7-4.1-5-4.1h-4.4v8.1h4.4C109.3,232.1,111,230.6,111,228.1"/>
<polygon fill="#666666" points="134.5,237.6 134.5,239.8 121.4,239.8 121.4,221.8 134.2,221.8 134.2,224 124,224 124,229.6 
	133.1,229.6 133.1,231.7 124,231.7 124,237.6 "/>
<polygon fill="#666666" points="142.3,221.8 144.9,221.8 144.9,237.6 154.7,237.6 154.7,239.8 142.3,239.8 "/>
<rect x="161.3" y="221.8" fill="#666666" width="2.6" height="18.1"/>
<path fill="#666666" d="M184.4,235.3h-9.6l-2,4.5h-2.7l8.2-18.1h2.6l8.2,18.1h-2.7L184.4,235.3z M183.5,233.2l-3.9-8.9l-3.9,8.9
	H183.5z"/>
<path fill="#666666" d="M210.9,235c0,3.1-2.4,4.9-6.9,4.9h-8.6v-18.1h8.1c4.2,0,6.5,1.8,6.5,4.7c0,2-1,3.3-2.4,4
	C209.6,231,210.9,232.6,210.9,235 M198,223.8v5.8h5.3c2.6,0,4.1-1,4.1-2.9c0-1.9-1.5-2.9-4.1-2.9H198z M208.3,234.7
	c0-2.1-1.5-3-4.4-3H198v6h5.9C206.8,237.7,208.3,236.8,208.3,234.7"/>
<polygon fill="#666666" points="218.5,221.8 221.1,221.8 221.1,237.6 230.9,237.6 230.9,239.8 218.5,239.8 "/>
<polygon fill="#666666" points="250.6,237.6 250.6,239.8 237.5,239.8 237.5,221.8 250.2,221.8 250.2,224 240.1,224 240.1,229.6 
	249.1,229.6 249.1,231.7 240.1,231.7 240.1,237.6 "/>
<path fill="#666666" d="M280.5,235.3h-9.6l-2,4.5h-2.7l8.2-18.1h2.6l8.2,18.1h-2.7L280.5,235.3z M279.6,233.2l-3.9-8.9l-3.9,8.9
	H279.6z"/>
<path fill="#666666" d="M289.7,230.8c0-5.3,4.1-9.2,9.6-9.2c2.8,0,5.2,1,6.9,2.8l-1.7,1.6c-1.4-1.5-3.1-2.1-5.1-2.1
	c-4.1,0-7.1,2.9-7.1,6.9c0,4,3,6.9,7.1,6.9c2,0,3.7-0.7,5.1-2.2l1.7,1.6c-1.7,1.9-4.1,2.8-6.9,2.8
	C293.8,240,289.7,236.1,289.7,230.8"/>
<path fill="#666666" d="M337.2,240.1l-2.4-2.4c-1.6,1.5-3.6,2.3-6,2.3c-3.7,0-6.3-1.9-6.3-4.7c0-2.2,1.3-3.8,4.4-5.6
	c-1.6-1.6-2.2-2.8-2.2-4.1c0-2.4,1.9-4.1,4.9-4.1c2.7,0,4.5,1.4,4.5,3.8c0,1.8-1.1,3.2-3.8,4.7l4.5,4.4c0.5-0.9,0.9-2,1.1-3.3l2,0.6
	c-0.3,1.6-0.9,3-1.6,4.1l2.4,2.4L337.2,240.1z M333.4,236.3l-5.1-5.1c-2.5,1.4-3.3,2.5-3.3,3.9c0,1.7,1.6,2.9,4.1,2.9
	C330.7,238,332.2,237.4,333.4,236.3 M327,225.6c0,0.9,0.4,1.6,1.8,3.1c2.4-1.3,3.2-2.2,3.2-3.3c0-1.2-0.9-2-2.4-2
	C327.9,223.4,327,224.3,327,225.6"/>
<path fill="#666666" d="M368,239.8l-3.9-5.6c-0.4,0-0.8,0.1-1.1,0.1h-4.5v5.5h-2.6v-18.1h7c4.7,0,7.5,2.4,7.5,6.3
	c0,2.8-1.4,4.8-4,5.7l4.3,6.1H368z M367.9,228.1c0-2.6-1.7-4.1-5-4.1h-4.4v8.1h4.4C366.2,232.1,367.9,230.6,367.9,228.1"/>
<polygon fill="#666666" points="391.4,237.6 391.4,239.8 378.3,239.8 378.3,221.8 391,221.8 391,224 380.9,224 380.9,229.6 
	389.9,229.6 389.9,231.7 380.9,231.7 380.9,237.6 "/>
<polygon fill="#666666" points="401.8,224 401.8,230.3 410.8,230.3 410.8,232.5 401.8,232.5 401.8,239.8 399.2,239.8 399.2,221.8 
	411.9,221.8 411.9,224 "/>
<path fill="#666666" d="M431.3,239.8l-3.9-5.6c-0.4,0-0.7,0.1-1.1,0.1h-4.5v5.5h-2.6v-18.1h7c4.7,0,7.5,2.4,7.5,6.3
	c0,2.8-1.4,4.8-4,5.7l4.3,6.1H431.3z M431.2,228.1c0-2.6-1.7-4.1-5-4.1h-4.4v8.1h4.4C429.5,232.1,431.2,230.6,431.2,228.1"/>
<rect x="441.6" y="221.8" fill="#666666" width="2.6" height="18.1"/>
<path fill="#666666" d="M465.7,230.7h2.5v7c-1.8,1.5-4.3,2.3-6.8,2.3c-5.6,0-9.6-3.9-9.6-9.2s4.1-9.2,9.7-9.2c2.9,0,5.3,1,6.9,2.8
	l-1.6,1.6c-1.5-1.4-3.2-2.1-5.2-2.1c-4.2,0-7.2,2.9-7.2,6.9c0,4,3,6.9,7.2,6.9c1.5,0,2.9-0.3,4.2-1.2V230.7z"/>
<polygon fill="#666666" points="489.8,237.6 489.8,239.8 476.7,239.8 476.7,221.8 489.5,221.8 489.5,224 479.3,224 479.3,229.6 
	488.4,229.6 488.4,231.7 479.3,231.7 479.3,237.6 "/>
<path fill="#666666" d="M509.7,239.8l-3.9-5.6c-0.4,0-0.8,0.1-1.1,0.1h-4.5v5.5h-2.6v-18.1h7c4.7,0,7.5,2.4,7.5,6.3
	c0,2.8-1.4,4.8-4,5.7l4.3,6.1H509.7z M509.6,228.1c0-2.6-1.7-4.1-5-4.1h-4.4v8.1h4.4C507.9,232.1,509.6,230.6,509.6,228.1"/>
<path fill="#666666" d="M531.5,235.3h-9.6l-2,4.5h-2.7l8.2-18.1h2.6l8.2,18.1h-2.7L531.5,235.3z M530.6,233.2l-3.9-8.9l-3.9,8.9
	H530.6z"/>
<polygon fill="#666666" points="545.2,224 539,224 539,221.8 553.9,221.8 553.9,224 547.7,224 547.7,239.8 545.2,239.8 "/>
<rect x="560.4" y="221.8" fill="#666666" width="2.6" height="18.1"/>
<path fill="#666666" d="M570.5,230.8c0-5.3,4.1-9.2,9.6-9.2c5.5,0,9.6,3.9,9.6,9.2c0,5.3-4.1,9.2-9.6,9.2
	C574.6,240,570.5,236.1,570.5,230.8 M587.1,230.8c0-4-3-6.9-7-6.9c-4.1,0-7,2.9-7,6.9c0,4,3,6.9,7,6.9
	C584.1,237.7,587.1,234.8,587.1,230.8"/>
<polygon fill="#666666" points="612.8,221.8 612.8,239.8 610.7,239.8 599.9,226.4 599.9,239.8 597.3,239.8 597.3,221.8 599.4,221.8 
	610.2,235.2 610.2,221.8 "/>
<path fill="#666666" d="M644.5,239.8l-3.9-5.6c-0.4,0-0.8,0.1-1.1,0.1H635v5.5h-2.6v-18.1h7c4.7,0,7.5,2.4,7.5,6.3
	c0,2.8-1.4,4.8-4,5.7l4.3,6.1H644.5z M644.4,228.1c0-2.6-1.7-4.1-5-4.1H635v8.1h4.4C642.7,232.1,644.4,230.6,644.4,228.1"/>
<polygon fill="#666666" points="667.9,237.6 667.9,239.8 654.8,239.8 654.8,221.8 667.5,221.8 667.5,224 657.4,224 657.4,229.6 
	666.4,229.6 666.4,231.7 657.4,231.7 657.4,237.6 "/>
<path fill="#666666" d="M690.3,228.1c0,3.9-2.8,6.3-7.5,6.3h-4.5v5.5h-2.6v-18.1h7C687.4,221.8,690.3,224.1,690.3,228.1
	 M687.7,228.1c0-2.6-1.7-4.1-5-4.1h-4.4v8.1h4.4C686,232.1,687.7,230.6,687.7,228.1"/>
<path fill="#666666" d="M708.3,235.3h-9.6l-2,4.5H694l8.2-18.1h2.6l8.2,18.1h-2.7L708.3,235.3z M707.4,233.2l-3.9-8.9l-3.9,8.9
	H707.4z"/>
<rect x="719.3" y="221.8" fill="#666666" width="2.6" height="18.1"/>
<path fill="#666666" d="M743,239.8l-3.9-5.6c-0.4,0-0.7,0.1-1.1,0.1h-4.5v5.5h-2.6v-18.1h7c4.7,0,7.5,2.4,7.5,6.3
	c0,2.8-1.4,4.8-4,5.7l4.3,6.1H743z M742.9,228.1c0-2.6-1.7-4.1-5-4.1h-4.4v8.1h4.4C741.2,232.1,742.9,230.6,742.9,228.1"/>
<path fill="#00295B" d="M219.7,186.2l42.1-84.5h37.4l42,84.5h-30.9l-7-15.4h-45.4l-7.9,15.4H219.7z M265.7,150.9h29.5l-13.9-30.6
	h-1.4L265.7,150.9z"/>
<rect x="361" y="101.6" fill="#00295B" width="27.6" height="84.5"/>
<path fill="#00295B" d="M512,187.6c-3.8,0-8.1-0.6-12.8-1.8c-4.7-1.2-9.3-4.1-13.9-8.8l-6-6c-2.9-2.9-5.6-5.2-8.3-7
	c-2.6-1.8-5.6-3.2-9-4.1c-3.4-0.9-7.6-1.4-12.6-1.4h-1.2v27.7h-28v-73l-1.4-11.6h66.5c6.1,0,11.1,0.7,14.9,2.2
	c3.8,1.5,6.7,3.4,8.8,5.9c2.1,2.4,3.5,5.2,4.2,8.3c0.8,3.1,1.1,6.2,1.1,9.3v2.7c0,5.7-1.5,10.9-4.4,15.4c-2.9,4.6-7.5,7.8-13.9,9.7
	c2.4,1.4,4.7,2.9,6.8,4.4c2.2,1.5,4.6,3,7.4,4.7c3.2,1.8,6.1,3.1,8.8,4c2.7,0.8,5,1.3,6.8,1.5c1.8,0.2,2.9,0.3,3.2,0.3l-4.3,16.2
	c-1.2,0.3-2.9,0.6-5.2,0.9C517.2,187.4,514.7,187.6,512,187.6 M464.9,139.3c2.4,0,4.7,0,7-0.1c2.2-0.1,4.3-0.2,6.1-0.4
	c3.3-0.4,5.5-1.4,6.7-3.1c1.2-1.7,1.8-3.7,1.8-6.1v-1.6c0-2.1-0.6-3.7-1.8-4.9c-1.2-1.2-3.4-1.7-6.5-1.7h-29.9v17.4
	c2.4,0.1,5,0.2,7.9,0.4C459,139.2,461.9,139.3,464.9,139.3"/>
</svg>
