<?xml version="1.0" encoding="UTF-8"?> <svg xmlns="http://www.w3.org/2000/svg" xmlns:xlink="http://www.w3.org/1999/xlink" version="1.1" id="Layer_1" x="0px" y="0px" viewBox="0 0 745.8 672.5" xml:space="preserve"> <path fill="#00295B" d="M29.2,513.3c-10.3,0-17.7-2.3-22.3-6.8C2.3,502.1,0,494.8,0,484.7v-26.3c0-10.3,2.5-17.9,7.6-22.6 c5.1-4.7,12.3-7.1,21.6-7.1h48c6.6,0,11.7,0.4,15.2,1.1c3.5,0.7,5.2,1.5,5.2,2.2l-4.5,18c-2.4-0.3-7.1-0.6-14-0.9 c-6.9-0.3-15.7-0.5-26.2-0.5H39.5c-4.5,0-7.5,0.8-9.1,2.5c-1.6,1.7-2.4,4.2-2.4,7.7v24.6c0,3.3,0.7,5.8,2.1,7.5 c1.4,1.8,4.5,2.7,9.4,2.7h11.6c4.4,0,8.4,0,11.9-0.1c3.5,0,6.7-0.1,9.3-0.2v-10.9l-5.7,0.1l-18.8,1.4V464h52v43.3l1.4,3 c0,0.8-2,1.5-6,2.1c-4,0.6-10.8,0.9-20.4,0.9H29.2z"></path> <path fill="#00295B" d="M156.4,513.3c-10.2,0-17.6-2.3-22.2-6.8c-4.6-4.6-7-11.8-7-21.8v-27.5c0-9.8,2.3-17,6.9-21.6 c4.6-4.6,12-6.9,22.3-6.9h42c10.1,0,17.4,2.3,22.1,6.9c4.6,4.6,7,11.8,7,21.6v27.5c0,10-2.3,17.2-7,21.8c-4.7,4.6-12,6.8-22,6.8 H156.4z M166.3,493.8h22.3c7.5,0,11.2-3.4,11.2-10.2v-25.2c0-6.7-3.7-10.1-11.2-10.1h-22.3c-3.8,0-6.7,0.8-8.6,2.3 c-1.9,1.5-2.9,4.1-2.9,7.8v25.2c0,3.5,1,6.1,2.9,7.8C159.6,493,162.5,493.8,166.3,493.8"></path> <polygon fill="#00295B" points="281.7,513.3 281.7,448.2 247.5,448.2 247.5,428.7 344.2,428.7 344.2,448.2 309.6,448.2 309.6,513.3 "></polygon> <polygon fill="#D23024" points="365.8,513.3 365.8,428.8 393.5,428.8 393.5,461 438.2,461 438.2,428.8 465.8,428.8 465.8,513.3 438.2,513.3 438.2,480.5 393.5,480.5 393.5,513.3 "></polygon> <path fill="#006ABA" d="M485.6,513.3l42.1-84.5h37.4l42,84.5h-30.9l-7-15.4h-45.4l-7.9,15.4H485.6z M531.6,478.1h29.5l-13.9-30.6 h-1.4L531.6,478.1z"></path> <polygon fill="#00295B" points="628.4,513.3 628.4,440.3 626.9,428.8 661.7,428.8 687,479.1 712.9,428.8 745.8,428.8 745.8,513.3 718.3,513.3 718.3,464.9 716.8,464.9 710.7,480.4 700.2,504.7 674.1,504.7 663.1,480.4 657.3,464.9 655.8,464.9 655.8,513.3 "></polygon> <polygon fill="#666666" points="2.6,652.8 2.6,659.1 11.6,659.1 11.6,661.3 2.6,661.3 2.6,668.6 0,668.6 0,650.6 12.8,650.6 12.8,652.8 "></polygon> <path fill="#666666" d="M30.7,664.1h-9.6l-2,4.5h-2.7l8.2-18.1h2.6l8.2,18.1h-2.7L30.7,664.1z M29.8,662.1l-3.9-8.9l-3.9,8.9H29.8z"></path> <path fill="#666666" d="M40,666.6l1-2c1.3,1.2,3.6,2.1,6,2.1c3.1,0,4.5-1.2,4.5-2.8c0-4.4-10.9-1.6-10.9-8.3c0-2.8,2.2-5.2,6.9-5.2 c2.1,0,4.3,0.6,5.8,1.6l-0.9,2.1c-1.6-1-3.4-1.5-5-1.5c-3.1,0-4.4,1.3-4.4,2.9c0,4.4,10.9,1.7,10.9,8.3c0,2.8-2.2,5.1-7,5.1 C44.2,668.8,41.5,667.9,40,666.6"></path> <polygon fill="#666666" points="64.7,652.8 58.5,652.8 58.5,650.6 73.4,650.6 73.4,652.8 67.2,652.8 67.2,668.6 64.7,668.6 "></polygon> <path fill="#666666" d="M80.9,667c0,0.5-0.1,0.9-0.4,1.9l-1.2,3.6h-1.6l1-3.8c-0.6-0.2-1.1-0.8-1.1-1.6c0-1,0.8-1.8,1.7-1.8 C80.2,665.3,80.9,666,80.9,667"></path> <path fill="#666666" d="M111.1,668.6l-3.9-5.6c-0.4,0-0.8,0.1-1.1,0.1h-4.5v5.5H99v-18.1h7c4.7,0,7.5,2.4,7.5,6.3 c0,2.8-1.4,4.8-4,5.7l4.3,6.1H111.1z M111,656.9c0-2.6-1.7-4.1-5-4.1h-4.4v8.1h4.4C109.3,660.9,111,659.4,111,656.9"></path> <polygon fill="#666666" points="134.5,666.4 134.5,668.6 121.4,668.6 121.4,650.6 134.2,650.6 134.2,652.8 124,652.8 124,658.4 133.1,658.4 133.1,660.6 124,660.6 124,666.4 "></polygon> <polygon fill="#666666" points="142.3,650.6 144.9,650.6 144.9,666.4 154.7,666.4 154.7,668.6 142.3,668.6 "></polygon> <rect x="161.3" y="650.6" fill="#666666" width="2.6" height="18.1"></rect> <path fill="#666666" d="M184.4,664.1h-9.6l-2,4.5h-2.7l8.2-18.1h2.6l8.2,18.1h-2.7L184.4,664.1z M183.5,662.1l-3.9-8.9l-3.9,8.9 H183.5z"></path> <path fill="#666666" d="M210.9,663.8c0,3.1-2.4,4.9-6.9,4.9h-8.6v-18.1h8.1c4.2,0,6.5,1.8,6.5,4.7c0,2-1,3.3-2.4,4 C209.6,659.8,210.9,661.4,210.9,663.8 M198,652.7v5.8h5.3c2.6,0,4.1-1,4.1-2.9s-1.5-2.9-4.1-2.9H198z M208.3,663.6 c0-2.1-1.5-3-4.4-3H198v6h5.9C206.8,666.5,208.3,665.6,208.3,663.6"></path> <polygon fill="#666666" points="218.5,650.6 221.1,650.6 221.1,666.4 230.9,666.4 230.9,668.6 218.5,668.6 "></polygon> <polygon fill="#666666" points="250.6,666.4 250.6,668.6 237.5,668.6 237.5,650.6 250.2,650.6 250.2,652.8 240.1,652.8 240.1,658.4 249.1,658.4 249.1,660.6 240.1,660.6 240.1,666.4 "></polygon> <path fill="#666666" d="M280.5,664.1h-9.6l-2,4.5h-2.7l8.2-18.1h2.6l8.2,18.1h-2.7L280.5,664.1z M279.6,662.1l-3.9-8.9l-3.9,8.9 H279.6z"></path> <path fill="#666666" d="M289.7,659.6c0-5.3,4.1-9.2,9.6-9.2c2.8,0,5.2,1,6.9,2.8l-1.7,1.6c-1.4-1.5-3.1-2.1-5.1-2.1 c-4.1,0-7.1,2.9-7.1,6.9c0,4,3,6.9,7.1,6.9c2,0,3.7-0.7,5.1-2.2l1.7,1.6c-1.7,1.9-4.1,2.8-6.9,2.8 C293.8,668.8,289.7,664.9,289.7,659.6"></path> <path fill="#666666" d="M337.2,668.9l-2.4-2.4c-1.6,1.5-3.6,2.3-6,2.3c-3.7,0-6.3-1.9-6.3-4.7c0-2.2,1.3-3.8,4.4-5.6 c-1.6-1.6-2.2-2.8-2.2-4.1c0-2.4,1.9-4.1,4.9-4.1c2.7,0,4.5,1.4,4.5,3.8c0,1.8-1.1,3.2-3.8,4.7l4.5,4.4c0.5-0.9,0.9-2,1.1-3.3l2,0.6 c-0.3,1.6-0.9,3-1.6,4.1l2.4,2.4L337.2,668.9z M333.4,665.1l-5.1-5.1c-2.5,1.4-3.3,2.5-3.3,3.9c0,1.7,1.6,2.9,4.1,2.9 C330.7,666.8,332.2,666.2,333.4,665.1 M327,654.4c0,0.9,0.4,1.6,1.8,3.1c2.4-1.3,3.2-2.2,3.2-3.3c0-1.2-0.9-2-2.4-2 C327.9,652.2,327,653.1,327,654.4"></path> <path fill="#666666" d="M368,668.6l-3.9-5.6c-0.4,0-0.8,0.1-1.1,0.1h-4.5v5.5h-2.6v-18.1h7c4.7,0,7.5,2.4,7.5,6.3 c0,2.8-1.4,4.8-4,5.7l4.3,6.1H368z M367.9,656.9c0-2.6-1.7-4.1-5-4.1h-4.4v8.1h4.4C366.2,660.9,367.9,659.4,367.9,656.9"></path> <polygon fill="#666666" points="391.4,666.4 391.4,668.6 378.3,668.6 378.3,650.6 391,650.6 391,652.8 380.9,652.8 380.9,658.4 389.9,658.4 389.9,660.6 380.9,660.6 380.9,666.4 "></polygon> <polygon fill="#666666" points="401.8,652.8 401.8,659.1 410.8,659.1 410.8,661.3 401.8,661.3 401.8,668.6 399.2,668.6 399.2,650.6 411.9,650.6 411.9,652.8 "></polygon> <path fill="#666666" d="M431.3,668.6l-3.9-5.6c-0.4,0-0.7,0.1-1.1,0.1h-4.5v5.5h-2.6v-18.1h7c4.7,0,7.5,2.4,7.5,6.3 c0,2.8-1.4,4.8-4,5.7l4.3,6.1H431.3z M431.2,656.9c0-2.6-1.7-4.1-5-4.1h-4.4v8.1h4.4C429.5,660.9,431.2,659.4,431.2,656.9"></path> <rect x="441.6" y="650.6" fill="#666666" width="2.6" height="18.1"></rect> <path fill="#666666" d="M465.7,659.5h2.5v7c-1.8,1.5-4.3,2.3-6.8,2.3c-5.6,0-9.6-3.9-9.6-9.2c0-5.3,4.1-9.2,9.7-9.2 c2.9,0,5.3,1,6.9,2.8l-1.6,1.6c-1.5-1.4-3.2-2.1-5.2-2.1c-4.2,0-7.2,2.9-7.2,6.9c0,4,3,6.9,7.2,6.9c1.5,0,2.9-0.3,4.2-1.2V659.5z"></path> <polygon fill="#666666" points="489.8,666.4 489.8,668.6 476.7,668.6 476.7,650.6 489.5,650.6 489.5,652.8 479.3,652.8 479.3,658.4 488.4,658.4 488.4,660.6 479.3,660.6 479.3,666.4 "></polygon> <path fill="#666666" d="M509.7,668.6l-3.9-5.6c-0.4,0-0.8,0.1-1.1,0.1h-4.5v5.5h-2.6v-18.1h7c4.7,0,7.5,2.4,7.5,6.3 c0,2.8-1.4,4.8-4,5.7l4.3,6.1H509.7z M509.6,656.9c0-2.6-1.7-4.1-5-4.1h-4.4v8.1h4.4C507.9,660.9,509.6,659.4,509.6,656.9"></path> <path fill="#666666" d="M531.5,664.1h-9.6l-2,4.5h-2.7l8.2-18.1h2.6l8.2,18.1h-2.7L531.5,664.1z M530.6,662.1l-3.9-8.9l-3.9,8.9 H530.6z"></path> <polygon fill="#666666" points="545.2,652.8 539,652.8 539,650.6 553.9,650.6 553.9,652.8 547.7,652.8 547.7,668.6 545.2,668.6 "></polygon> <rect x="560.4" y="650.6" fill="#666666" width="2.6" height="18.1"></rect> <path fill="#666666" d="M570.5,659.6c0-5.3,4.1-9.2,9.6-9.2c5.5,0,9.6,3.9,9.6,9.2c0,5.3-4.1,9.2-9.6,9.2 C574.6,668.8,570.5,664.9,570.5,659.6 M587.1,659.6c0-4-3-6.9-7-6.9c-4.1,0-7,2.9-7,6.9c0,4,3,6.9,7,6.9 C584.1,666.5,587.1,663.6,587.1,659.6"></path> <polygon fill="#666666" points="612.8,650.6 612.8,668.6 610.7,668.6 599.9,655.2 599.9,668.6 597.3,668.6 597.3,650.6 599.4,650.6 610.2,664 610.2,650.6 "></polygon> <path fill="#666666" d="M644.5,668.6l-3.9-5.6c-0.4,0-0.8,0.1-1.1,0.1H635v5.5h-2.6v-18.1h7c4.7,0,7.5,2.4,7.5,6.3 c0,2.8-1.4,4.8-4,5.7l4.3,6.1H644.5z M644.4,656.9c0-2.6-1.7-4.1-5-4.1H635v8.1h4.4C642.7,660.9,644.4,659.4,644.4,656.9"></path> <polygon fill="#666666" points="667.9,666.4 667.9,668.6 654.8,668.6 654.8,650.6 667.5,650.6 667.5,652.8 657.4,652.8 657.4,658.4 666.4,658.4 666.4,660.6 657.4,660.6 657.4,666.4 "></polygon> <path fill="#666666" d="M690.3,656.9c0,3.9-2.8,6.3-7.5,6.3h-4.5v5.5h-2.6v-18.1h7C687.4,650.6,690.3,652.9,690.3,656.9 M687.7,656.9c0-2.6-1.7-4.1-5-4.1h-4.4v8.1h4.4C686,660.9,687.7,659.4,687.7,656.9"></path> <path fill="#666666" d="M708.3,664.1h-9.6l-2,4.5H694l8.2-18.1h2.6l8.2,18.1h-2.7L708.3,664.1z M707.4,662.1l-3.9-8.9l-3.9,8.9 H707.4z"></path> <rect x="719.3" y="650.6" fill="#666666" width="2.6" height="18.1"></rect> <path fill="#666666" d="M743,668.6l-3.9-5.6c-0.4,0-0.7,0.1-1.1,0.1h-4.5v5.5h-2.6v-18.1h7c4.7,0,7.5,2.4,7.5,6.3 c0,2.8-1.4,4.8-4,5.7l4.3,6.1H743z M742.9,656.9c0-2.6-1.7-4.1-5-4.1h-4.4v8.1h4.4C741.2,660.9,742.9,659.4,742.9,656.9"></path> <g> <defs> <path id="SVGID_1_" d="M404.5,146.4h-53.6l42.6,33.4c4.5,7.1-24.4,8.8-27.6,9.1c-13.4,1.2-26.9,1.4-40.4,0.6 c-18.9-1.1-37.3-6-56.1-7.1c-55.4-3.2-102.5,17.7-139.4,60.1c-1.4,1.6-4.3,4.8-4.1,7c22.5-16.8,49.7-27.5,77.9-29.3 c24-1.6,47,1.9,69.8,5.3c33.8,5.1,67.2,10.2,103-1c16.4-5.2,30.9-14.3,46-22.3l48,34.8l-16-55.8l43.8-34.7h-55L424,90.7 L404.5,146.4z"></path> </defs> <clipPath id="SVGID_2_"> <use xlink:href="#SVGID_1_" overflow="visible"></use> </clipPath> <linearGradient id="SVGID_3_" gradientUnits="userSpaceOnUse" x1="-167.1071" y1="877.0883" x2="-166.1071" y2="877.0883" gradientTransform="matrix(270.3967 -62.9048 -62.9048 -270.3967 100535.1563 226851.4688)"> <stop offset="0" style="stop-color:#0081C1"></stop> <stop offset="0.2221" style="stop-color:#0081C1"></stop> <stop offset="1" style="stop-color:#00295B"></stop> </linearGradient> <polygon clip-path="url(#SVGID_2_)" fill="url(#SVGID_3_)" points="90.7,98.8 479.3,8.4 533.5,241.3 144.9,331.7 "></polygon> </g> <path fill="#00295B" d="M270.1,169.7c10.1,0.6,19.9,2.2,29.3,3.7c9.2,1.5,13.9,2.9,22.7,3.4c1.2,0.1,2.3,0.1,3.5,0.2v-54.9 c0-14.3,3.3-24.9,9.8-31.9c6.6-6.9,23.2-10.4,41.9-10.4h55.4c43.7,0,156.4,0.7,185.2,2.1l-0.6-52.1C617.4,14.1,604.6,1.5,589,1.5 H334.5c-38.6,0-68.4,9.8-89.4,29.5C224,50.7,213.5,82,213.5,125v50C231.4,170.4,250.4,168.6,270.1,169.7"></path> <path fill="#D23024" d="M406.5,225.6c-22.6,24.1-53.6,46.8-86.3,53c-61,11.6-120.1-18.9-179.7,2.8l-29.3,12.4 c20-31.5,58.6-50.4,95.4-52.9c44.2-3,85.8,12,129.5,6.9C360.9,244.9,384.3,236,406.5,225.6"></path> <path fill="#00295B" d="M531.9,136l-62.8,49.8l7.5,26.2l69.7-0.3v91.7h-10.9v-14.3h-5.3v-4.6h-13.1v4.6h-5.3v14.3h-7.7v-29.6h-35.7 v29.6h-8.1v-20.5h-3.2v-18.1h-3.3V256h-3.2v-4.3h-3.3v-3.3h-4v-5.2h-2v5.2h-3.8v3.3h-3.3v4.3h-3.2v8.8h-3.3v18.1h-3.2v20.5h-8.5 v-28.7l-23-19.5v10.1h-11.4v38.1H372v-10.5v-8.5V275h-17.9v9.3h-11.9v19h-17.4v-12.9c-26.9,5.5-73.3,1.6-96.5-0.9 c-0.6-0.1-1.2-0.2-1.8-0.2c-4.1-0.5-8.2-1-12.2-1.4c0,49.3,40,95.4,89.3,95.4h220.6c39.7,0,68-1.3,84.7-3.9l19.1-3.2v-34.2V136 H531.9z"></path> <path fill="#00295B" d="M219.7,615l42.1-84.5h37.4l42,84.5h-30.9l-7-15.4h-45.4l-7.9,15.4H219.7z M265.7,579.7h29.5l-13.9-30.6h-1.4 L265.7,579.7z"></path> <rect x="361" y="530.4" fill="#00295B" width="27.6" height="84.5"></rect> <path fill="#00295B" d="M512,616.4c-3.8,0-8.1-0.6-12.8-1.8c-4.7-1.2-9.3-4.1-13.9-8.8l-6-6c-2.9-2.9-5.6-5.2-8.3-7 c-2.6-1.8-5.6-3.2-9-4.1c-3.4-0.9-7.6-1.4-12.6-1.4h-1.2V615h-28v-73l-1.4-11.6h66.5c6.1,0,11.1,0.7,14.9,2.2 c3.8,1.5,6.7,3.4,8.8,5.9c2.1,2.4,3.5,5.2,4.2,8.3c0.8,3.1,1.1,6.2,1.1,9.3v2.7c0,5.7-1.5,10.9-4.4,15.4c-2.9,4.6-7.5,7.8-13.9,9.7 c2.4,1.4,4.7,2.9,6.8,4.4c2.2,1.5,4.6,3,7.4,4.7c3.2,1.8,6.1,3.1,8.8,4c2.7,0.8,5,1.3,6.8,1.5c1.8,0.2,2.9,0.3,3.2,0.3l-4.3,16.2 c-1.2,0.3-2.9,0.6-5.2,0.9C517.2,616.2,514.7,616.4,512,616.4 M464.9,568.1c2.4,0,4.7,0,7-0.1c2.2-0.1,4.3-0.2,6.1-0.4 c3.3-0.4,5.5-1.4,6.7-3.1c1.2-1.7,1.8-3.7,1.8-6.1v-1.6c0-2.1-0.6-3.7-1.8-4.9c-1.2-1.2-3.4-1.7-6.5-1.7h-29.9v17.4 c2.4,0.1,5,0.2,7.9,0.4C459,568,461.9,568.1,464.9,568.1"></path> </svg> 