<svg width="31" height="31" viewBox="0 0 31 31" fill="none" xmlns="http://www.w3.org/2000/svg">
<g clip-path="url(#clip0_1_21504)">
<path d="M22.5821 3.70486C20.761 1.89654 18.3498 0.90332 15.7851 0.90332C15.7619 0.90332 15.7381 0.903379 15.7149 0.903555C13.211 0.921191 10.8402 1.90223 9.03927 3.66596C7.23798 5.43004 6.20843 7.77988 6.14041 10.2825C6.06945 12.8904 7.0247 15.3604 8.83021 17.2376C10.252 18.7158 11.035 20.6819 11.035 22.7739V26.7982C11.035 27.6251 11.609 28.3199 12.3793 28.5063V29.0429C12.3793 30.0687 13.2138 30.9033 14.2396 30.9033H17.3158C18.3416 30.9033 19.1762 30.0687 19.1762 29.0429V28.5094C19.9532 28.3278 20.5338 27.6298 20.5338 26.7982V22.774C20.5338 20.7094 21.3383 18.7206 22.7993 17.1739C24.4971 15.3764 25.4321 13.0244 25.4321 10.551C25.4321 7.96111 24.42 5.52977 22.5821 3.70486ZM18.0044 29.043C18.0044 29.4226 17.6955 29.7314 17.3159 29.7314H14.2397C13.8601 29.7314 13.5512 29.4226 13.5512 29.043V28.5559H18.0044V29.043ZM19.362 26.7982C19.362 27.1212 19.0993 27.384 18.7763 27.384H18.5903H12.9653H12.7927C12.4696 27.384 12.2069 27.1212 12.2069 26.7982V23.4657H19.362V26.7982ZM14.864 22.2938V14.8825H16.6894V22.2938H14.864V22.2938ZM21.9474 16.3692C20.3934 18.0145 19.4901 20.1024 19.3747 22.2938H17.8613V14.8825H18.388C19.3245 14.8825 20.0865 14.1205 20.0865 13.1839V13.0931C20.0865 12.1565 19.3245 11.3945 18.388 11.3945C17.4514 11.3945 16.6894 12.1565 16.6894 13.0931V13.7106H14.864V13.0931C14.864 12.1565 14.1021 11.3945 13.1655 11.3945H13.0501C12.1135 11.3945 11.3516 12.1565 11.3516 13.0931V13.1839C11.3516 14.1205 12.1135 14.8825 13.0501 14.8825H13.6921V22.2938H12.1948C12.083 20.0776 11.1982 18.0089 9.67484 16.4252C8.08871 14.7762 7.24947 12.6059 7.31187 10.3144C7.43457 5.80322 11.2078 2.10725 15.7232 2.07537C18.0021 2.05937 20.142 2.93336 21.7565 4.53643C23.3711 6.13967 24.2603 8.2757 24.2603 10.551C24.2603 12.724 23.4389 14.7902 21.9474 16.3692ZM17.8613 13.7106V13.0931C17.8613 12.8027 18.0976 12.5664 18.388 12.5664C18.6784 12.5664 18.9147 12.8027 18.9147 13.0931V13.1839C18.9147 13.4744 18.6784 13.7106 18.388 13.7106H17.8613ZM13.6921 13.0931V13.7106H13.05C12.7596 13.7106 12.5234 13.4744 12.5234 13.1839V13.0931C12.5234 12.8027 12.7596 12.5664 13.05 12.5664H13.1654C13.4558 12.5664 13.6921 12.8028 13.6921 13.0931Z" fill="white"/>
<path d="M22.0651 8.01461C21.5617 6.76504 20.7057 5.70162 19.5895 4.93931C18.4454 4.15796 17.1043 3.75015 15.7147 3.75994C15.3911 3.76222 15.1305 4.02642 15.1328 4.35004C15.1351 4.67224 15.397 4.93181 15.7186 4.93181C15.7201 4.93181 15.7215 4.93181 15.7229 4.93181C15.7366 4.93175 15.7501 4.9317 15.7638 4.9317C18.0711 4.9317 20.1151 6.31011 20.9781 8.45248C21.0701 8.68088 21.2898 8.81963 21.5218 8.81963C21.5947 8.81963 21.6688 8.80597 21.7406 8.77703C22.0407 8.65609 22.1861 8.31472 22.0651 8.01461Z" fill="white"/>
<path d="M22.383 10.1365C22.274 10.0275 22.1229 9.96484 21.9688 9.96484C21.8146 9.96484 21.6635 10.0275 21.5545 10.1365C21.4449 10.2455 21.3828 10.3967 21.3828 10.5508C21.3828 10.7055 21.4449 10.8561 21.5545 10.965C21.6635 11.0746 21.8141 11.1367 21.9688 11.1367C22.1229 11.1367 22.274 11.0746 22.383 10.965C22.4919 10.8561 22.5547 10.7055 22.5547 10.5508C22.5547 10.3967 22.492 10.2455 22.383 10.1365Z" fill="white"/>
<path d="M27.9904 3.822C27.7615 3.59319 27.3906 3.59319 27.1617 3.822L26.07 4.91366C25.8412 5.14247 25.8412 5.51348 26.07 5.74235C26.1845 5.85678 26.3344 5.91397 26.4844 5.91397C26.6344 5.91397 26.7843 5.85678 26.8987 5.74235L27.9904 4.65069C28.2192 4.42188 28.2192 4.05086 27.9904 3.822Z" fill="white"/>
<path d="M27.9903 16.4517L26.8987 15.3601C26.6699 15.1313 26.299 15.1313 26.07 15.3601C25.8412 15.5889 25.8412 15.9599 26.07 16.1887L27.1617 17.2804C27.2761 17.3948 27.4261 17.452 27.576 17.452C27.726 17.452 27.8759 17.3948 27.9903 17.2804C28.2191 17.0516 28.2191 16.6806 27.9903 16.4517Z" fill="white"/>
<path d="M30.1923 9.96484H28.6484C28.3249 9.96484 28.0625 10.2272 28.0625 10.5508C28.0625 10.8744 28.3249 11.1367 28.6484 11.1367H30.1923C30.5159 11.1367 30.7783 10.8744 30.7783 10.5508C30.7783 10.2272 30.5159 9.96484 30.1923 9.96484Z" fill="white"/>
<path d="M5.48448 4.91366L4.39288 3.822C4.16401 3.59319 3.79311 3.59319 3.56418 3.822C3.33538 4.05081 3.33538 4.42182 3.56418 4.65069L4.65584 5.74235C4.77028 5.85678 4.92022 5.91397 5.07016 5.91397C5.2201 5.91397 5.37004 5.85678 5.48448 5.74235C5.71329 5.51348 5.71329 5.14252 5.48448 4.91366Z" fill="white"/>
<path d="M5.48448 15.3601C5.25567 15.1313 4.88471 15.1313 4.65584 15.3601L3.56418 16.4518C3.33538 16.6807 3.33538 17.0517 3.56418 17.2805C3.67862 17.3949 3.82856 17.4521 3.9785 17.4521C4.12844 17.4521 4.27838 17.3949 4.39282 17.2805L5.48448 16.1888C5.71329 15.96 5.71329 15.589 5.48448 15.3601Z" fill="white"/>
<path d="M2.90717 9.96509H1.36328C1.03973 9.96509 0.777344 10.2274 0.777344 10.551C0.777344 10.8746 1.03973 11.137 1.36328 11.137H2.90717C3.23072 11.137 3.49311 10.8746 3.49311 10.551C3.49311 10.2274 3.23072 9.96509 2.90717 9.96509Z" fill="white"/>
</g>
<defs>
<clipPath id="clip0_1_21504">
<rect width="30" height="30" fill="white" transform="translate(0.777344 0.90332)"/>
</clipPath>
</defs>
</svg>
